%TF.GenerationSoftware,KiCad,Pcbnew,9.0.0*%
%TF.CreationDate,2025-05-05T14:02:43+02:00*%
%TF.ProjectId,BMS_PCB,424d535f-5043-4422-9e6b-696361645f70,rev?*%
%TF.SameCoordinates,Original*%
%TF.FileFunction,Soldermask,Bot*%
%TF.FilePolarity,Negative*%
%FSLAX46Y46*%
G04 Gerber Fmt 4.6, Leading zero omitted, Abs format (unit mm)*
G04 Created by KiCad (PCBNEW 9.0.0) date 2025-05-05 14:02:43*
%MOMM*%
%LPD*%
G01*
G04 APERTURE LIST*
%ADD10C,4.000000*%
%ADD11R,1.600000X1.600000*%
%ADD12C,1.600000*%
%ADD13R,1.524000X1.524000*%
%ADD14C,1.524000*%
%ADD15C,3.500000*%
%ADD16C,1.498600*%
%ADD17R,1.800000X1.800000*%
%ADD18C,1.800000*%
G04 APERTURE END LIST*
D10*
%TO.C,J1*%
X141343750Y-157593750D03*
X141343750Y-94093750D03*
D11*
X139923750Y-100913750D03*
D12*
X139923750Y-103683750D03*
X139923750Y-106453750D03*
X139923750Y-109223750D03*
X139923750Y-111993750D03*
X139923750Y-114763750D03*
X139923750Y-117533750D03*
X139923750Y-120303750D03*
X139923750Y-123073750D03*
X139923750Y-125843750D03*
X139923750Y-128613750D03*
X139923750Y-131383750D03*
X139923750Y-134153750D03*
X139923750Y-136923750D03*
X139923750Y-139693750D03*
X139923750Y-142463750D03*
X139923750Y-145233750D03*
X139923750Y-148003750D03*
X139923750Y-150773750D03*
X142763750Y-102298750D03*
X142763750Y-105068750D03*
X142763750Y-107838750D03*
X142763750Y-110608750D03*
X142763750Y-113378750D03*
X142763750Y-116148750D03*
X142763750Y-118918750D03*
X142763750Y-121688750D03*
X142763750Y-124458750D03*
X142763750Y-127228750D03*
X142763750Y-129998750D03*
X142763750Y-132768750D03*
X142763750Y-135538750D03*
X142763750Y-138308750D03*
X142763750Y-141078750D03*
X142763750Y-143848750D03*
X142763750Y-146618750D03*
X142763750Y-149388750D03*
%TD*%
D13*
%TO.C,U7*%
X84670000Y-90853750D03*
D14*
X82130000Y-90853750D03*
X84670000Y-88313750D03*
X82130000Y-88313750D03*
X84670000Y-85773750D03*
X82130000Y-85773750D03*
X84670000Y-83233750D03*
X82130000Y-83233750D03*
X84670000Y-80693750D03*
X82130000Y-80693750D03*
X84670000Y-78153750D03*
X82130000Y-78153750D03*
X84670000Y-75613750D03*
X82130000Y-75613750D03*
X84670000Y-73073750D03*
X82130000Y-73073750D03*
X84670000Y-70533750D03*
X82130000Y-70533750D03*
X84670000Y-67993750D03*
X82130000Y-67993750D03*
X84670000Y-65453750D03*
X82130000Y-65453750D03*
X84670000Y-62913750D03*
X82130000Y-62913750D03*
X84670000Y-60373750D03*
X82130000Y-60373750D03*
X84670000Y-57833750D03*
X82130000Y-57833750D03*
X84670000Y-55293750D03*
X82130000Y-55293750D03*
X84670000Y-52753750D03*
X82130000Y-52753750D03*
X84670000Y-50213750D03*
X82130000Y-50213750D03*
X84670000Y-47673750D03*
X82130000Y-47673750D03*
X84670000Y-45133750D03*
X82130000Y-45133750D03*
X84670000Y-42593750D03*
X82130000Y-42593750D03*
X84670000Y-40053750D03*
X82130000Y-40053750D03*
X84670000Y-37513750D03*
X82130000Y-37513750D03*
X84670000Y-34973750D03*
X82130000Y-34973750D03*
X84670000Y-32433750D03*
X82130000Y-32433750D03*
X84670000Y-29893750D03*
X82130000Y-29893750D03*
X33870000Y-90853750D03*
X31330000Y-90853750D03*
X33870000Y-88313750D03*
X31330000Y-88313750D03*
X33870000Y-85773750D03*
X31330000Y-85773750D03*
X33870000Y-83233750D03*
X31330000Y-83233750D03*
X33870000Y-80693750D03*
X31330000Y-80693750D03*
X33870000Y-78153750D03*
X31330000Y-78153750D03*
X33870000Y-75613750D03*
X31330000Y-75613750D03*
X33870000Y-73073750D03*
X31330000Y-73073750D03*
X33870000Y-70533750D03*
X31330000Y-70533750D03*
X33870000Y-67993750D03*
X31330000Y-67993750D03*
X33870000Y-65453750D03*
X31330000Y-65453750D03*
X33870000Y-62913750D03*
X31330000Y-62913750D03*
X33870000Y-60373750D03*
X31330000Y-60373750D03*
X33870000Y-57833750D03*
X31330000Y-57833750D03*
X33870000Y-55293750D03*
X31330000Y-55293750D03*
X33870000Y-52753750D03*
X31330000Y-52753750D03*
X33870000Y-50213750D03*
X31330000Y-50213750D03*
X33870000Y-47673750D03*
X31330000Y-47673750D03*
X33870000Y-45133750D03*
X31330000Y-45133750D03*
X33870000Y-42593750D03*
X31330000Y-42593750D03*
X33870000Y-40053750D03*
X31330000Y-40053750D03*
X33870000Y-37513750D03*
X31330000Y-37513750D03*
X33870000Y-34973750D03*
X31330000Y-34973750D03*
X33870000Y-32433750D03*
X31330000Y-32433750D03*
X33870000Y-29893750D03*
X31330000Y-29893750D03*
%TD*%
D15*
%TO.C,H2*%
X29767997Y-98036545D03*
%TD*%
D16*
%TO.C,K1*%
X138657050Y-168743750D03*
X138657050Y-178903750D03*
X138657050Y-181443750D03*
X146277050Y-181443750D03*
X146277050Y-178903750D03*
X146277050Y-168743750D03*
%TD*%
D17*
%TO.C,PS1*%
X125875000Y-60033750D03*
D18*
X125875000Y-65113750D03*
X125875000Y-72733750D03*
X105555000Y-72733750D03*
X105555000Y-62573750D03*
X105555000Y-52413750D03*
%TD*%
D15*
%TO.C,H1*%
X29756366Y-181991878D03*
%TD*%
D10*
%TO.C,J2*%
X140837169Y-66743750D03*
X140837169Y-33443750D03*
D11*
X139417169Y-40398750D03*
D12*
X139417169Y-43168750D03*
X139417169Y-45938750D03*
X139417169Y-48708750D03*
X139417169Y-51478750D03*
X139417169Y-54248750D03*
X139417169Y-57018750D03*
X139417169Y-59788750D03*
X142257169Y-41783750D03*
X142257169Y-44553750D03*
X142257169Y-47323750D03*
X142257169Y-50093750D03*
X142257169Y-52863750D03*
X142257169Y-55633750D03*
X142257169Y-58403750D03*
%TD*%
D15*
%TO.C,H4*%
X114000000Y-30500000D03*
%TD*%
%TO.C,H3*%
X159723881Y-181983757D03*
%TD*%
M02*
