M48
; DRILL file {KiCad 9.0.0} date 2025-05-05T14:04:32+0200
; FORMAT={-:-/ absolute / metric / decimal}
; #@! TF.CreationDate,2025-05-05T14:04:32+02:00
; #@! TF.GenerationSoftware,Kicad,Pcbnew,9.0.0
; #@! TF.FileFunction,Plated,1,2,PTH
FMAT,2
METRIC
; #@! TA.AperFunction,Plated,PTH,ViaDrill
T1C0.300
; #@! TA.AperFunction,Plated,PTH,ViaDrill
T2C0.400
; #@! TA.AperFunction,Plated,PTH,ViaDrill
T3C0.500
; #@! TA.AperFunction,Plated,PTH,ComponentDrill
T4C0.991
; #@! TA.AperFunction,Plated,PTH,ComponentDrill
T5C1.000
; #@! TA.AperFunction,Plated,PTH,ComponentDrill
T6C1.016
; #@! TA.AperFunction,Plated,PTH,ComponentDrill
T7C1.200
; #@! TA.AperFunction,Plated,PTH,ComponentDrill
T8C3.200
%
G90
G05
T1
X38.794Y-151.355
X39.019Y-158.205
X43.519Y-163.655
X44.206Y-144.268
X47.519Y-157.768
X47.794Y-150.405
X50.106Y-166.405
X51.5Y-64.0
X54.0Y-66.0
X59.111Y-148.768
X60.0Y-106.5
X61.474Y-158.58
X62.5Y-61.5
X62.735Y-148.842
X65.789Y-156.905
X68.799Y-144.905
X70.401Y-144.768
X71.0Y-56.5
X71.75Y-91.75
X73.264Y-164.275
X74.0Y-58.0
X76.0Y-79.0
X78.0Y-56.5
X79.889Y-138.18
X84.0Y-100.0
X84.614Y-158.767
X87.0Y-97.5
X87.0Y-100.0
X88.5Y-67.0
X90.0Y-61.0
X90.5Y-114.0
X92.0Y-111.0
X92.845Y-97.594
X93.5Y-117.5
X94.839Y-103.839
X96.5Y-99.5
X98.757Y-102.456
X98.764Y-147.5
X98.845Y-100.731
X99.182Y-86.614
X99.264Y-136.405
X100.593Y-107.19
X101.5Y-94.5
X101.505Y-118.5
X101.505Y-125.5
X102.593Y-107.328
X102.593Y-114.052
X103.0Y-93.594
X103.764Y-141.5
X104.593Y-112.277
X104.8Y-115.5
X105.794Y-116.506
X111.464Y-159.9
X111.73Y-116.19
X112.264Y-109.5
X112.345Y-101.506
X113.764Y-127.5
X115.067Y-118.285
X115.55Y-155.0
X117.3Y-115.5
X117.374Y-97.0
X117.374Y-101.95
X117.73Y-110.19
X118.264Y-157.5
X119.3Y-117.5
X119.455Y-110.19
X121.264Y-115.5
X121.289Y-106.597
X121.764Y-118.5
X122.454Y-138.0
X123.376Y-106.46
X123.464Y-114.686
X123.68Y-119.19
X124.264Y-157.5
X127.004Y-161.862
X127.737Y-80.614
X130.054Y-157.362
X130.074Y-127.8
X131.264Y-177.0
T2
X108.257Y-84.614
T3
X125.0Y-92.094
X134.5Y-101.5
T4
X138.657Y-168.744
X138.657Y-178.904
X138.657Y-181.444
X146.277Y-168.744
X146.277Y-178.904
X146.277Y-181.444
T5
X139.417Y-40.399
X139.417Y-43.169
X139.417Y-45.939
X139.417Y-48.709
X139.417Y-51.479
X139.417Y-54.249
X139.417Y-57.019
X139.417Y-59.789
X139.924Y-100.914
X139.924Y-103.684
X139.924Y-106.454
X139.924Y-109.224
X139.924Y-111.994
X139.924Y-114.764
X139.924Y-117.534
X139.924Y-120.304
X139.924Y-123.074
X139.924Y-125.844
X139.924Y-128.614
X139.924Y-131.384
X139.924Y-134.154
X139.924Y-136.924
X139.924Y-139.694
X139.924Y-142.464
X139.924Y-145.234
X139.924Y-148.004
X139.924Y-150.774
X142.257Y-41.784
X142.257Y-44.554
X142.257Y-47.324
X142.257Y-50.094
X142.257Y-52.864
X142.257Y-55.634
X142.257Y-58.404
X142.764Y-102.299
X142.764Y-105.069
X142.764Y-107.839
X142.764Y-110.609
X142.764Y-113.379
X142.764Y-116.149
X142.764Y-118.919
X142.764Y-121.689
X142.764Y-124.459
X142.764Y-127.229
X142.764Y-129.999
X142.764Y-132.769
X142.764Y-135.539
X142.764Y-138.309
X142.764Y-141.079
X142.764Y-143.849
X142.764Y-146.619
X142.764Y-149.389
T6
X31.33Y-29.894
X31.33Y-32.434
X31.33Y-34.974
X31.33Y-37.514
X31.33Y-40.054
X31.33Y-42.594
X31.33Y-45.134
X31.33Y-47.674
X31.33Y-50.214
X31.33Y-52.754
X31.33Y-55.294
X31.33Y-57.834
X31.33Y-60.374
X31.33Y-62.914
X31.33Y-65.454
X31.33Y-67.994
X31.33Y-70.534
X31.33Y-73.074
X31.33Y-75.614
X31.33Y-78.154
X31.33Y-80.694
X31.33Y-83.234
X31.33Y-85.774
X31.33Y-88.314
X31.33Y-90.854
X33.87Y-29.894
X33.87Y-32.434
X33.87Y-34.974
X33.87Y-37.514
X33.87Y-40.054
X33.87Y-42.594
X33.87Y-45.134
X33.87Y-47.674
X33.87Y-50.214
X33.87Y-52.754
X33.87Y-55.294
X33.87Y-57.834
X33.87Y-60.374
X33.87Y-62.914
X33.87Y-65.454
X33.87Y-67.994
X33.87Y-70.534
X33.87Y-73.074
X33.87Y-75.614
X33.87Y-78.154
X33.87Y-80.694
X33.87Y-83.234
X33.87Y-85.774
X33.87Y-88.314
X33.87Y-90.854
X82.13Y-29.894
X82.13Y-32.434
X82.13Y-34.974
X82.13Y-37.514
X82.13Y-40.054
X82.13Y-42.594
X82.13Y-45.134
X82.13Y-47.674
X82.13Y-50.214
X82.13Y-52.754
X82.13Y-55.294
X82.13Y-57.834
X82.13Y-60.374
X82.13Y-62.914
X82.13Y-65.454
X82.13Y-67.994
X82.13Y-70.534
X82.13Y-73.074
X82.13Y-75.614
X82.13Y-78.154
X82.13Y-80.694
X82.13Y-83.234
X82.13Y-85.774
X82.13Y-88.314
X82.13Y-90.854
X84.67Y-29.894
X84.67Y-32.434
X84.67Y-34.974
X84.67Y-37.514
X84.67Y-40.054
X84.67Y-42.594
X84.67Y-45.134
X84.67Y-47.674
X84.67Y-50.214
X84.67Y-52.754
X84.67Y-55.294
X84.67Y-57.834
X84.67Y-60.374
X84.67Y-62.914
X84.67Y-65.454
X84.67Y-67.994
X84.67Y-70.534
X84.67Y-73.074
X84.67Y-75.614
X84.67Y-78.154
X84.67Y-80.694
X84.67Y-83.234
X84.67Y-85.774
X84.67Y-88.314
X84.67Y-90.854
T7
X105.555Y-52.414
X105.555Y-62.574
X105.555Y-72.734
X125.875Y-60.034
X125.875Y-65.114
X125.875Y-72.734
T8
X140.837Y-33.444
X140.837Y-66.744
X141.344Y-94.094
X141.344Y-157.594
M30
