%TF.GenerationSoftware,KiCad,Pcbnew,9.0.0*%
%TF.CreationDate,2025-05-05T14:02:43+02:00*%
%TF.ProjectId,BMS_PCB,424d535f-5043-4422-9e6b-696361645f70,rev?*%
%TF.SameCoordinates,Original*%
%TF.FileFunction,Soldermask,Top*%
%TF.FilePolarity,Negative*%
%FSLAX46Y46*%
G04 Gerber Fmt 4.6, Leading zero omitted, Abs format (unit mm)*
G04 Created by KiCad (PCBNEW 9.0.0) date 2025-05-05 14:02:43*
%MOMM*%
%LPD*%
G01*
G04 APERTURE LIST*
G04 Aperture macros list*
%AMRoundRect*
0 Rectangle with rounded corners*
0 $1 Rounding radius*
0 $2 $3 $4 $5 $6 $7 $8 $9 X,Y pos of 4 corners*
0 Add a 4 corners polygon primitive as box body*
4,1,4,$2,$3,$4,$5,$6,$7,$8,$9,$2,$3,0*
0 Add four circle primitives for the rounded corners*
1,1,$1+$1,$2,$3*
1,1,$1+$1,$4,$5*
1,1,$1+$1,$6,$7*
1,1,$1+$1,$8,$9*
0 Add four rect primitives between the rounded corners*
20,1,$1+$1,$2,$3,$4,$5,0*
20,1,$1+$1,$4,$5,$6,$7,0*
20,1,$1+$1,$6,$7,$8,$9,0*
20,1,$1+$1,$8,$9,$2,$3,0*%
%AMOutline5P*
0 Free polygon, 5 corners , with rotation*
0 The origin of the aperture is its center*
0 number of corners: always 5*
0 $1 to $10 corner X, Y*
0 $11 Rotation angle, in degrees counterclockwise*
0 create outline with 5 corners*
4,1,5,$1,$2,$3,$4,$5,$6,$7,$8,$9,$10,$1,$2,$11*%
%AMOutline6P*
0 Free polygon, 6 corners , with rotation*
0 The origin of the aperture is its center*
0 number of corners: always 6*
0 $1 to $12 corner X, Y*
0 $13 Rotation angle, in degrees counterclockwise*
0 create outline with 6 corners*
4,1,6,$1,$2,$3,$4,$5,$6,$7,$8,$9,$10,$11,$12,$1,$2,$13*%
%AMOutline7P*
0 Free polygon, 7 corners , with rotation*
0 The origin of the aperture is its center*
0 number of corners: always 7*
0 $1 to $14 corner X, Y*
0 $15 Rotation angle, in degrees counterclockwise*
0 create outline with 7 corners*
4,1,7,$1,$2,$3,$4,$5,$6,$7,$8,$9,$10,$11,$12,$13,$14,$1,$2,$15*%
%AMOutline8P*
0 Free polygon, 8 corners , with rotation*
0 The origin of the aperture is its center*
0 number of corners: always 8*
0 $1 to $16 corner X, Y*
0 $17 Rotation angle, in degrees counterclockwise*
0 create outline with 8 corners*
4,1,8,$1,$2,$3,$4,$5,$6,$7,$8,$9,$10,$11,$12,$13,$14,$15,$16,$1,$2,$17*%
G04 Aperture macros list end*
%ADD10RoundRect,0.237500X0.250000X0.237500X-0.250000X0.237500X-0.250000X-0.237500X0.250000X-0.237500X0*%
%ADD11RoundRect,0.250000X0.412500X0.650000X-0.412500X0.650000X-0.412500X-0.650000X0.412500X-0.650000X0*%
%ADD12RoundRect,0.237500X0.237500X-0.250000X0.237500X0.250000X-0.237500X0.250000X-0.237500X-0.250000X0*%
%ADD13RoundRect,0.237500X0.237500X-0.300000X0.237500X0.300000X-0.237500X0.300000X-0.237500X-0.300000X0*%
%ADD14RoundRect,0.237500X-0.237500X0.250000X-0.237500X-0.250000X0.237500X-0.250000X0.237500X0.250000X0*%
%ADD15RoundRect,0.237500X0.300000X0.237500X-0.300000X0.237500X-0.300000X-0.237500X0.300000X-0.237500X0*%
%ADD16C,1.000000*%
%ADD17RoundRect,0.237500X-0.250000X-0.237500X0.250000X-0.237500X0.250000X0.237500X-0.250000X0.237500X0*%
%ADD18R,1.960000X3.150000*%
%ADD19R,1.850000X0.650000*%
%ADD20RoundRect,0.162500X0.162500X-0.617500X0.162500X0.617500X-0.162500X0.617500X-0.162500X-0.617500X0*%
%ADD21RoundRect,0.162500X0.617500X0.162500X-0.617500X0.162500X-0.617500X-0.162500X0.617500X-0.162500X0*%
%ADD22R,1.200000X1.800000*%
%ADD23RoundRect,0.250000X-0.337500X-0.475000X0.337500X-0.475000X0.337500X0.475000X-0.337500X0.475000X0*%
%ADD24C,4.000000*%
%ADD25R,1.600000X1.600000*%
%ADD26C,1.600000*%
%ADD27RoundRect,0.102000X0.762000X0.762000X-0.762000X0.762000X-0.762000X-0.762000X0.762000X-0.762000X0*%
%ADD28C,1.728000*%
%ADD29C,3.500000*%
%ADD30RoundRect,0.250000X-0.412500X-0.650000X0.412500X-0.650000X0.412500X0.650000X-0.412500X0.650000X0*%
%ADD31C,1.498600*%
%ADD32RoundRect,0.237500X-0.237500X0.300000X-0.237500X-0.300000X0.237500X-0.300000X0.237500X0.300000X0*%
%ADD33R,3.400000X0.980000*%
%ADD34RoundRect,0.237500X-0.300000X-0.237500X0.300000X-0.237500X0.300000X0.237500X-0.300000X0.237500X0*%
%ADD35Outline6P,-2.900000X0.630000X-2.480000X1.050000X2.480000X1.050000X2.900000X0.630000X2.900000X-1.050000X-2.900000X-1.050000X180.000000*%
%ADD36Outline6P,-2.900000X0.630000X-2.480000X1.050000X2.480000X1.050000X2.900000X0.630000X2.900000X-1.050000X-2.900000X-1.050000X0.000000*%
%ADD37RoundRect,0.150000X-0.150000X0.825000X-0.150000X-0.825000X0.150000X-0.825000X0.150000X0.825000X0*%
%ADD38R,4.240000X3.810000*%
%ADD39R,3.000000X7.500000*%
%ADD40RoundRect,0.250000X-0.650000X1.000000X-0.650000X-1.000000X0.650000X-1.000000X0.650000X1.000000X0*%
%ADD41RoundRect,0.250000X0.650000X-0.412500X0.650000X0.412500X-0.650000X0.412500X-0.650000X-0.412500X0*%
%ADD42RoundRect,0.102000X0.900000X0.900000X-0.900000X0.900000X-0.900000X-0.900000X0.900000X-0.900000X0*%
%ADD43C,2.004000*%
%ADD44RoundRect,0.150000X0.825000X0.150000X-0.825000X0.150000X-0.825000X-0.150000X0.825000X-0.150000X0*%
%ADD45RoundRect,0.150000X-0.825000X-0.150000X0.825000X-0.150000X0.825000X0.150000X-0.825000X0.150000X0*%
%ADD46RoundRect,0.150000X-0.512500X-0.150000X0.512500X-0.150000X0.512500X0.150000X-0.512500X0.150000X0*%
%ADD47RoundRect,0.100000X-0.100000X0.637500X-0.100000X-0.637500X0.100000X-0.637500X0.100000X0.637500X0*%
%ADD48RoundRect,0.250000X-1.000000X-0.650000X1.000000X-0.650000X1.000000X0.650000X-1.000000X0.650000X0*%
%ADD49RoundRect,0.250000X1.350000X1.975000X-1.350000X1.975000X-1.350000X-1.975000X1.350000X-1.975000X0*%
G04 APERTURE END LIST*
D10*
%TO.C,R56*%
X34670000Y-161792750D03*
X32845000Y-161792750D03*
%TD*%
D11*
%TO.C,C20*%
X107777500Y-79573750D03*
X104652500Y-79573750D03*
%TD*%
D12*
%TO.C,R59*%
X49018501Y-163705250D03*
X49018501Y-161880250D03*
%TD*%
D13*
%TO.C,C24*%
X117287500Y-86126250D03*
X117287500Y-84401250D03*
%TD*%
D14*
%TO.C,R7*%
X121263750Y-180087500D03*
X121263750Y-181912500D03*
%TD*%
D12*
%TO.C,R9*%
X117288750Y-108372500D03*
X117288750Y-106547500D03*
%TD*%
D15*
%TO.C,C3*%
X113455000Y-116190000D03*
X111730000Y-116190000D03*
%TD*%
D16*
%TO.C,TP2*%
X97737500Y-50976250D03*
%TD*%
D10*
%TO.C,R38*%
X103815000Y-84593750D03*
X101990000Y-84593750D03*
%TD*%
D13*
%TO.C,C7*%
X102592500Y-109052500D03*
X102592500Y-107327500D03*
%TD*%
D17*
%TO.C,R36*%
X73351250Y-168862500D03*
X75176250Y-168862500D03*
%TD*%
D18*
%TO.C,F4*%
X126718750Y-147000000D03*
X121808750Y-147000000D03*
%TD*%
D13*
%TO.C,C57*%
X78263750Y-164225000D03*
X78263750Y-162500000D03*
%TD*%
%TO.C,C36*%
X121737500Y-86338750D03*
X121737500Y-84613750D03*
%TD*%
%TO.C,C17*%
X94263750Y-164225000D03*
X94263750Y-162500000D03*
%TD*%
D10*
%TO.C,R42*%
X35170000Y-151767750D03*
X33345000Y-151767750D03*
%TD*%
D19*
%TO.C,IC3*%
X95263750Y-132862500D03*
X95263750Y-131592500D03*
X95263750Y-130322500D03*
X95263750Y-129052500D03*
X84613750Y-129052500D03*
X84613750Y-130322500D03*
X84613750Y-131592500D03*
X84613750Y-132862500D03*
%TD*%
D17*
%TO.C,R18*%
X98680000Y-112190000D03*
X100505000Y-112190000D03*
%TD*%
D13*
%TO.C,C11*%
X121288750Y-108322500D03*
X121288750Y-106597500D03*
%TD*%
%TO.C,C47*%
X94263750Y-151087500D03*
X94263750Y-149362500D03*
%TD*%
D20*
%TO.C,U4*%
X125787500Y-86963750D03*
X126737500Y-86963750D03*
X127687500Y-86963750D03*
X127687500Y-84263750D03*
X125787500Y-84263750D03*
%TD*%
D10*
%TO.C,R8*%
X125201250Y-108460000D03*
X123376250Y-108460000D03*
%TD*%
D17*
%TO.C,R46*%
X78526250Y-142362500D03*
X80351250Y-142362500D03*
%TD*%
D21*
%TO.C,IC1*%
X95682500Y-86613750D03*
X95682500Y-85663750D03*
X95682500Y-84713750D03*
X92982500Y-84713750D03*
X92982500Y-85663750D03*
X92982500Y-86613750D03*
%TD*%
D22*
%TO.C,PS5*%
X114003750Y-159900000D03*
X111463750Y-159900000D03*
X106383750Y-159900000D03*
X106383750Y-170100000D03*
X114003750Y-170100000D03*
%TD*%
D10*
%TO.C,R65*%
X99257500Y-97593750D03*
X97432500Y-97593750D03*
%TD*%
D12*
%TO.C,R37*%
X73438750Y-177187500D03*
X73438750Y-175362500D03*
%TD*%
D23*
%TO.C,C19*%
X131182500Y-65567500D03*
X133257500Y-65567500D03*
%TD*%
D12*
%TO.C,R24*%
X107592500Y-120965000D03*
X107592500Y-119140000D03*
%TD*%
D17*
%TO.C,R58*%
X50106001Y-168267750D03*
X51931001Y-168267750D03*
%TD*%
D13*
%TO.C,C65*%
X94438750Y-177225000D03*
X94438750Y-175500000D03*
%TD*%
D24*
%TO.C,J1*%
X141343750Y-157593750D03*
X141343750Y-94093750D03*
D25*
X139923750Y-100913750D03*
D26*
X139923750Y-103683750D03*
X139923750Y-106453750D03*
X139923750Y-109223750D03*
X139923750Y-111993750D03*
X139923750Y-114763750D03*
X139923750Y-117533750D03*
X139923750Y-120303750D03*
X139923750Y-123073750D03*
X139923750Y-125843750D03*
X139923750Y-128613750D03*
X139923750Y-131383750D03*
X139923750Y-134153750D03*
X139923750Y-136923750D03*
X139923750Y-139693750D03*
X139923750Y-142463750D03*
X139923750Y-145233750D03*
X139923750Y-148003750D03*
X139923750Y-150773750D03*
X142763750Y-102298750D03*
X142763750Y-105068750D03*
X142763750Y-107838750D03*
X142763750Y-110608750D03*
X142763750Y-113378750D03*
X142763750Y-116148750D03*
X142763750Y-118918750D03*
X142763750Y-121688750D03*
X142763750Y-124458750D03*
X142763750Y-127228750D03*
X142763750Y-129998750D03*
X142763750Y-132768750D03*
X142763750Y-135538750D03*
X142763750Y-138308750D03*
X142763750Y-141078750D03*
X142763750Y-143848750D03*
X142763750Y-146618750D03*
X142763750Y-149388750D03*
%TD*%
D13*
%TO.C,C12*%
X79938750Y-138130000D03*
X79938750Y-136405000D03*
%TD*%
D27*
%TO.C,U7*%
X84670000Y-90853750D03*
D28*
X82130000Y-90853750D03*
X84670000Y-88313750D03*
X82130000Y-88313750D03*
X84670000Y-85773750D03*
X82130000Y-85773750D03*
X84670000Y-83233750D03*
X82130000Y-83233750D03*
X84670000Y-80693750D03*
X82130000Y-80693750D03*
X84670000Y-78153750D03*
X82130000Y-78153750D03*
X84670000Y-75613750D03*
X82130000Y-75613750D03*
X84670000Y-73073750D03*
X82130000Y-73073750D03*
X84670000Y-70533750D03*
X82130000Y-70533750D03*
X84670000Y-67993750D03*
X82130000Y-67993750D03*
X84670000Y-65453750D03*
X82130000Y-65453750D03*
X84670000Y-62913750D03*
X82130000Y-62913750D03*
X84670000Y-60373750D03*
X82130000Y-60373750D03*
X84670000Y-57833750D03*
X82130000Y-57833750D03*
X84670000Y-55293750D03*
X82130000Y-55293750D03*
X84670000Y-52753750D03*
X82130000Y-52753750D03*
X84670000Y-50213750D03*
X82130000Y-50213750D03*
X84670000Y-47673750D03*
X82130000Y-47673750D03*
X84670000Y-45133750D03*
X82130000Y-45133750D03*
X84670000Y-42593750D03*
X82130000Y-42593750D03*
X84670000Y-40053750D03*
X82130000Y-40053750D03*
X84670000Y-37513750D03*
X82130000Y-37513750D03*
X84670000Y-34973750D03*
X82130000Y-34973750D03*
X84670000Y-32433750D03*
X82130000Y-32433750D03*
X84670000Y-29893750D03*
X82130000Y-29893750D03*
X33870000Y-90853750D03*
X31330000Y-90853750D03*
X33870000Y-88313750D03*
X31330000Y-88313750D03*
X33870000Y-85773750D03*
X31330000Y-85773750D03*
X33870000Y-83233750D03*
X31330000Y-83233750D03*
X33870000Y-80693750D03*
X31330000Y-80693750D03*
X33870000Y-78153750D03*
X31330000Y-78153750D03*
X33870000Y-75613750D03*
X31330000Y-75613750D03*
X33870000Y-73073750D03*
X31330000Y-73073750D03*
X33870000Y-70533750D03*
X31330000Y-70533750D03*
X33870000Y-67993750D03*
X31330000Y-67993750D03*
X33870000Y-65453750D03*
X31330000Y-65453750D03*
X33870000Y-62913750D03*
X31330000Y-62913750D03*
X33870000Y-60373750D03*
X31330000Y-60373750D03*
X33870000Y-57833750D03*
X31330000Y-57833750D03*
X33870000Y-55293750D03*
X31330000Y-55293750D03*
X33870000Y-52753750D03*
X31330000Y-52753750D03*
X33870000Y-50213750D03*
X31330000Y-50213750D03*
X33870000Y-47673750D03*
X31330000Y-47673750D03*
X33870000Y-45133750D03*
X31330000Y-45133750D03*
X33870000Y-42593750D03*
X31330000Y-42593750D03*
X33870000Y-40053750D03*
X31330000Y-40053750D03*
X33870000Y-37513750D03*
X31330000Y-37513750D03*
X33870000Y-34973750D03*
X31330000Y-34973750D03*
X33870000Y-32433750D03*
X31330000Y-32433750D03*
X33870000Y-29893750D03*
X31330000Y-29893750D03*
%TD*%
D14*
%TO.C,R3*%
X116763750Y-180087500D03*
X116763750Y-181912500D03*
%TD*%
D22*
%TO.C,PS6*%
X129543750Y-161862500D03*
X127003750Y-161862500D03*
X121923750Y-161862500D03*
X121923750Y-172062500D03*
X129543750Y-172062500D03*
%TD*%
D12*
%TO.C,R55*%
X39018501Y-163705250D03*
X39018501Y-161880250D03*
%TD*%
%TO.C,R25*%
X105592500Y-120965000D03*
X105592500Y-119140000D03*
%TD*%
D13*
%TO.C,C69*%
X69257500Y-158630250D03*
X69257500Y-156905250D03*
%TD*%
D10*
%TO.C,R53*%
X35670000Y-147093750D03*
X33845000Y-147093750D03*
%TD*%
D13*
%TO.C,C43*%
X99763750Y-144820000D03*
X99763750Y-143095000D03*
%TD*%
D29*
%TO.C,H2*%
X29767997Y-98036545D03*
%TD*%
D13*
%TO.C,C8*%
X84438750Y-138225000D03*
X84438750Y-136500000D03*
%TD*%
D30*
%TO.C,C59*%
X126941250Y-157362500D03*
X130066250Y-157362500D03*
%TD*%
D17*
%TO.C,R17*%
X78526250Y-129362500D03*
X80351250Y-129362500D03*
%TD*%
D12*
%TO.C,R10*%
X119288750Y-108372500D03*
X119288750Y-106547500D03*
%TD*%
D13*
%TO.C,C66*%
X84438750Y-177225000D03*
X84438750Y-175500000D03*
%TD*%
D31*
%TO.C,K1*%
X138657050Y-168743750D03*
X138657050Y-178903750D03*
X138657050Y-181443750D03*
X146277050Y-181443750D03*
X146277050Y-178903750D03*
X146277050Y-168743750D03*
%TD*%
D32*
%TO.C,C31*%
X67513501Y-149405250D03*
X67513501Y-151130250D03*
%TD*%
D13*
%TO.C,C6*%
X94263750Y-138130000D03*
X94263750Y-136405000D03*
%TD*%
D10*
%TO.C,R26*%
X125505000Y-119190000D03*
X123680000Y-119190000D03*
%TD*%
D14*
%TO.C,R41*%
X50793501Y-146855250D03*
X50793501Y-148680250D03*
%TD*%
D16*
%TO.C,TP1*%
X112237500Y-80613750D03*
%TD*%
D32*
%TO.C,C67*%
X88938750Y-175500000D03*
X88938750Y-177225000D03*
%TD*%
D12*
%TO.C,R60*%
X39018501Y-158205250D03*
X39018501Y-156380250D03*
%TD*%
D32*
%TO.C,C23*%
X102382500Y-87751250D03*
X102382500Y-89476250D03*
%TD*%
D33*
%TO.C,L1*%
X132757500Y-61278750D03*
X132757500Y-58908750D03*
%TD*%
D11*
%TO.C,C21*%
X134277500Y-54613750D03*
X131152500Y-54613750D03*
%TD*%
D34*
%TO.C,C26*%
X97215000Y-68573750D03*
X98940000Y-68573750D03*
%TD*%
D17*
%TO.C,R11*%
X98767500Y-107190000D03*
X100592500Y-107190000D03*
%TD*%
D12*
%TO.C,R64*%
X94838750Y-102562500D03*
X94838750Y-100737500D03*
%TD*%
D13*
%TO.C,C2*%
X99763750Y-132225000D03*
X99763750Y-130500000D03*
%TD*%
D32*
%TO.C,C4*%
X99263750Y-136405000D03*
X99263750Y-138130000D03*
%TD*%
D13*
%TO.C,C41*%
X53293501Y-148630250D03*
X53293501Y-146905250D03*
%TD*%
D10*
%TO.C,R6*%
X125201250Y-106460000D03*
X123376250Y-106460000D03*
%TD*%
D14*
%TO.C,R57*%
X67257500Y-156905250D03*
X67257500Y-158730250D03*
%TD*%
D35*
%TO.C,L3*%
X109737500Y-88563750D03*
D36*
X109737500Y-84663750D03*
%TD*%
D32*
%TO.C,C5*%
X121376250Y-112823750D03*
X121376250Y-114548750D03*
%TD*%
D16*
%TO.C,TP3*%
X127737500Y-80613750D03*
%TD*%
D32*
%TO.C,C64*%
X99438750Y-175500000D03*
X99438750Y-177225000D03*
%TD*%
D14*
%TO.C,R39*%
X99182500Y-84788750D03*
X99182500Y-86613750D03*
%TD*%
D37*
%TO.C,U10*%
X126263750Y-97000000D03*
X124993750Y-97000000D03*
X123723750Y-97000000D03*
X122453750Y-97000000D03*
X121183750Y-97000000D03*
X119913750Y-97000000D03*
X118643750Y-97000000D03*
X117373750Y-97000000D03*
X117373750Y-101950000D03*
X118643750Y-101950000D03*
X119913750Y-101950000D03*
X121183750Y-101950000D03*
X122453750Y-101950000D03*
X123723750Y-101950000D03*
X124993750Y-101950000D03*
X126263750Y-101950000D03*
%TD*%
D38*
%TO.C,F5*%
X140942500Y-84093750D03*
X134572500Y-84093750D03*
%TD*%
D10*
%TO.C,R44*%
X94670000Y-97593750D03*
X92845000Y-97593750D03*
%TD*%
D18*
%TO.C,F6*%
X111718750Y-143500000D03*
X106808750Y-143500000D03*
%TD*%
D32*
%TO.C,C56*%
X88763750Y-162500000D03*
X88763750Y-164225000D03*
%TD*%
D39*
%TO.C,L2*%
X98757500Y-60113750D03*
X93757500Y-60113750D03*
%TD*%
D40*
%TO.C,D3*%
X130500000Y-95500000D03*
X130500000Y-99500000D03*
%TD*%
D17*
%TO.C,R34*%
X58148501Y-160255250D03*
X59973501Y-160255250D03*
%TD*%
D12*
%TO.C,R22*%
X75438750Y-138180000D03*
X75438750Y-136355000D03*
%TD*%
D14*
%TO.C,R52*%
X38757500Y-147181250D03*
X38757500Y-149006250D03*
%TD*%
D17*
%TO.C,R12*%
X78613750Y-132362500D03*
X80438750Y-132362500D03*
%TD*%
D10*
%TO.C,R51*%
X46431001Y-168267750D03*
X44606001Y-168267750D03*
%TD*%
D22*
%TO.C,PS4*%
X113763750Y-127500000D03*
X111223750Y-127500000D03*
X106143750Y-127500000D03*
X106143750Y-137700000D03*
X113763750Y-137700000D03*
%TD*%
D32*
%TO.C,C72*%
X52018501Y-161930250D03*
X52018501Y-163655250D03*
%TD*%
D14*
%TO.C,R5*%
X119288750Y-112547500D03*
X119288750Y-114372500D03*
%TD*%
D30*
%TO.C,C55*%
X112437500Y-155000000D03*
X115562500Y-155000000D03*
%TD*%
D41*
%TO.C,C52*%
X135523750Y-135562500D03*
X135523750Y-132437500D03*
%TD*%
D19*
%TO.C,IC5*%
X95263750Y-158767500D03*
X95263750Y-157497500D03*
X95263750Y-156227500D03*
X95263750Y-154957500D03*
X84613750Y-154957500D03*
X84613750Y-156227500D03*
X84613750Y-157497500D03*
X84613750Y-158767500D03*
%TD*%
D14*
%TO.C,R43*%
X38793501Y-151355250D03*
X38793501Y-153180250D03*
%TD*%
D12*
%TO.C,R47*%
X75438750Y-151275000D03*
X75438750Y-149450000D03*
%TD*%
D13*
%TO.C,C40*%
X62973501Y-162130250D03*
X62973501Y-160405250D03*
%TD*%
%TO.C,C54*%
X41793501Y-148630250D03*
X41793501Y-146905250D03*
%TD*%
D32*
%TO.C,C61*%
X43518501Y-161930250D03*
X43518501Y-163655250D03*
%TD*%
%TO.C,C44*%
X99263750Y-149362500D03*
X99263750Y-151087500D03*
%TD*%
D13*
%TO.C,C15*%
X99763750Y-157682500D03*
X99763750Y-155957500D03*
%TD*%
D42*
%TO.C,PS1*%
X125875000Y-60033750D03*
D43*
X125875000Y-65113750D03*
X125875000Y-72733750D03*
X105555000Y-72733750D03*
X105555000Y-62573750D03*
X105555000Y-52413750D03*
%TD*%
D10*
%TO.C,R62*%
X110757500Y-97093750D03*
X108932500Y-97093750D03*
%TD*%
D12*
%TO.C,R61*%
X112345000Y-101506250D03*
X112345000Y-99681250D03*
%TD*%
D34*
%TO.C,C28*%
X97215000Y-74573750D03*
X98940000Y-74573750D03*
%TD*%
D29*
%TO.C,H1*%
X29756366Y-181991878D03*
%TD*%
D15*
%TO.C,C51*%
X60836001Y-147292750D03*
X59111001Y-147292750D03*
%TD*%
D24*
%TO.C,J2*%
X140837169Y-66743750D03*
X140837169Y-33443750D03*
D25*
X139417169Y-40398750D03*
D26*
X139417169Y-43168750D03*
X139417169Y-45938750D03*
X139417169Y-48708750D03*
X139417169Y-51478750D03*
X139417169Y-54248750D03*
X139417169Y-57018750D03*
X139417169Y-59788750D03*
X142257169Y-41783750D03*
X142257169Y-44553750D03*
X142257169Y-47323750D03*
X142257169Y-50093750D03*
X142257169Y-52863750D03*
X142257169Y-55633750D03*
X142257169Y-58403750D03*
%TD*%
D29*
%TO.C,H4*%
X114000000Y-30500000D03*
%TD*%
D18*
%TO.C,F3*%
X110955000Y-151500000D03*
X106045000Y-151500000D03*
%TD*%
D10*
%TO.C,R40*%
X50206001Y-141767750D03*
X48381001Y-141767750D03*
%TD*%
D44*
%TO.C,U1*%
X114763750Y-114270000D03*
X114763750Y-113000000D03*
X114763750Y-111730000D03*
X114763750Y-110460000D03*
X114763750Y-109190000D03*
X114763750Y-107920000D03*
X114763750Y-106650000D03*
X109813750Y-106650000D03*
X109813750Y-107920000D03*
X109813750Y-109190000D03*
X109813750Y-110460000D03*
X109813750Y-111730000D03*
X109813750Y-113000000D03*
X109813750Y-114270000D03*
%TD*%
D19*
%TO.C,IC6*%
X95263750Y-171767500D03*
X95263750Y-170497500D03*
X95263750Y-169227500D03*
X95263750Y-167957500D03*
X84613750Y-167957500D03*
X84613750Y-169227500D03*
X84613750Y-170497500D03*
X84613750Y-171767500D03*
%TD*%
D17*
%TO.C,R48*%
X59061001Y-145267750D03*
X60886001Y-145267750D03*
%TD*%
D13*
%TO.C,C50*%
X79938750Y-151225000D03*
X79938750Y-149500000D03*
%TD*%
%TO.C,C14*%
X121592500Y-120915000D03*
X121592500Y-119190000D03*
%TD*%
D14*
%TO.C,R4*%
X117288750Y-112547500D03*
X117288750Y-114372500D03*
%TD*%
D45*
%TO.C,U2*%
X110117500Y-118285000D03*
X110117500Y-119555000D03*
X110117500Y-120825000D03*
X110117500Y-122095000D03*
X115067500Y-122095000D03*
X115067500Y-120825000D03*
X115067500Y-119555000D03*
X115067500Y-118285000D03*
%TD*%
D12*
%TO.C,R29*%
X117592500Y-121102500D03*
X117592500Y-119277500D03*
%TD*%
D32*
%TO.C,C49*%
X88763750Y-149500000D03*
X88763750Y-151225000D03*
%TD*%
D12*
%TO.C,R15*%
X104592500Y-109102500D03*
X104592500Y-107277500D03*
%TD*%
D10*
%TO.C,R2*%
X125288750Y-114686250D03*
X123463750Y-114686250D03*
%TD*%
D13*
%TO.C,C42*%
X47793501Y-148630250D03*
X47793501Y-146905250D03*
%TD*%
D10*
%TO.C,R1*%
X125201250Y-112460000D03*
X123376250Y-112460000D03*
%TD*%
D17*
%TO.C,R32*%
X73351250Y-156362500D03*
X75176250Y-156362500D03*
%TD*%
D10*
%TO.C,R63*%
X35170000Y-156292750D03*
X33345000Y-156292750D03*
%TD*%
D15*
%TO.C,C35*%
X122600000Y-80263750D03*
X120875000Y-80263750D03*
%TD*%
D13*
%TO.C,C9*%
X103592500Y-120915000D03*
X103592500Y-119190000D03*
%TD*%
D12*
%TO.C,R30*%
X119592500Y-121102500D03*
X119592500Y-119277500D03*
%TD*%
D34*
%TO.C,C39*%
X68676001Y-144767750D03*
X70401001Y-144767750D03*
%TD*%
D21*
%TO.C,U8*%
X105238750Y-100000000D03*
X105238750Y-99050000D03*
X105238750Y-98100000D03*
X102538750Y-98100000D03*
X102538750Y-100000000D03*
%TD*%
D17*
%TO.C,R35*%
X78526250Y-170362500D03*
X80351250Y-170362500D03*
%TD*%
D37*
%TO.C,U11*%
X51328501Y-152817750D03*
X50058501Y-152817750D03*
X48788501Y-152817750D03*
X47518501Y-152817750D03*
X46248501Y-152817750D03*
X44978501Y-152817750D03*
X43708501Y-152817750D03*
X43708501Y-157767750D03*
X44978501Y-157767750D03*
X46248501Y-157767750D03*
X47518501Y-157767750D03*
X48788501Y-157767750D03*
X50058501Y-157767750D03*
X51328501Y-157767750D03*
%TD*%
D40*
%TO.C,D2*%
X131263750Y-177000000D03*
X131263750Y-181000000D03*
%TD*%
D34*
%TO.C,C27*%
X97215000Y-71573750D03*
X98940000Y-71573750D03*
%TD*%
D32*
%TO.C,C16*%
X99263750Y-162500000D03*
X99263750Y-164225000D03*
%TD*%
D15*
%TO.C,C58*%
X59923501Y-162230250D03*
X58198501Y-162230250D03*
%TD*%
D18*
%TO.C,F1*%
X111958750Y-176000000D03*
X107048750Y-176000000D03*
%TD*%
D19*
%TO.C,IC4*%
X95263750Y-145767500D03*
X95263750Y-144497500D03*
X95263750Y-143227500D03*
X95263750Y-141957500D03*
X84613750Y-141957500D03*
X84613750Y-143227500D03*
X84613750Y-144497500D03*
X84613750Y-145767500D03*
%TD*%
D10*
%TO.C,R28*%
X125505000Y-121190000D03*
X123680000Y-121190000D03*
%TD*%
D13*
%TO.C,C68*%
X78438750Y-177225000D03*
X78438750Y-175500000D03*
%TD*%
D17*
%TO.C,R31*%
X78613750Y-157862500D03*
X80438750Y-157862500D03*
%TD*%
D12*
%TO.C,R54*%
X46518501Y-163705250D03*
X46518501Y-161880250D03*
%TD*%
D11*
%TO.C,C53*%
X99062500Y-125500000D03*
X95937500Y-125500000D03*
%TD*%
D17*
%TO.C,R21*%
X99680000Y-119052500D03*
X101505000Y-119052500D03*
%TD*%
D46*
%TO.C,Q1*%
X124988750Y-180050000D03*
X124988750Y-181950000D03*
X127263750Y-181000000D03*
%TD*%
D13*
%TO.C,C63*%
X99763750Y-170682500D03*
X99763750Y-168957500D03*
%TD*%
D40*
%TO.C,D4*%
X134500000Y-102000000D03*
X134500000Y-106000000D03*
%TD*%
D14*
%TO.C,R20*%
X104592500Y-112277500D03*
X104592500Y-114102500D03*
%TD*%
D22*
%TO.C,PS3*%
X122453750Y-138000000D03*
X124993750Y-138000000D03*
X130073750Y-138000000D03*
X130073750Y-127800000D03*
X122453750Y-127800000D03*
%TD*%
D47*
%TO.C,U3*%
X63423501Y-150905250D03*
X62773501Y-150905250D03*
X62123501Y-150905250D03*
X61473501Y-150905250D03*
X60823501Y-150905250D03*
X60173501Y-150905250D03*
X59523501Y-150905250D03*
X59523501Y-156630250D03*
X60173501Y-156630250D03*
X60823501Y-156630250D03*
X61473501Y-156630250D03*
X62123501Y-156630250D03*
X62773501Y-156630250D03*
X63423501Y-156630250D03*
%TD*%
D12*
%TO.C,R14*%
X106592500Y-109015000D03*
X106592500Y-107190000D03*
%TD*%
D32*
%TO.C,C29*%
X107845000Y-99731250D03*
X107845000Y-101456250D03*
%TD*%
D17*
%TO.C,R16*%
X98680000Y-114190000D03*
X100505000Y-114190000D03*
%TD*%
D13*
%TO.C,C45*%
X84438750Y-164225000D03*
X84438750Y-162500000D03*
%TD*%
D32*
%TO.C,C30*%
X98757500Y-100731250D03*
X98757500Y-102456250D03*
%TD*%
D17*
%TO.C,R23*%
X99680000Y-121052500D03*
X101505000Y-121052500D03*
%TD*%
D12*
%TO.C,R33*%
X73263750Y-164275000D03*
X73263750Y-162450000D03*
%TD*%
D34*
%TO.C,C33*%
X132050000Y-91000000D03*
X133775000Y-91000000D03*
%TD*%
D18*
%TO.C,F2*%
X125718750Y-154000000D03*
X120808750Y-154000000D03*
%TD*%
D13*
%TO.C,C48*%
X84438750Y-151225000D03*
X84438750Y-149500000D03*
%TD*%
D32*
%TO.C,C10*%
X88763750Y-136405000D03*
X88763750Y-138130000D03*
%TD*%
D14*
%TO.C,R19*%
X106592500Y-112277500D03*
X106592500Y-114102500D03*
%TD*%
D34*
%TO.C,C25*%
X97215000Y-65573750D03*
X98940000Y-65573750D03*
%TD*%
D13*
%TO.C,C22*%
X93737500Y-52338750D03*
X93737500Y-50613750D03*
%TD*%
D14*
%TO.C,R50*%
X44793501Y-146855250D03*
X44793501Y-148680250D03*
%TD*%
D48*
%TO.C,D1*%
X95715000Y-79073750D03*
X99715000Y-79073750D03*
%TD*%
D34*
%TO.C,C1*%
X117730000Y-110190000D03*
X119455000Y-110190000D03*
%TD*%
D32*
%TO.C,C13*%
X102592500Y-112327500D03*
X102592500Y-114052500D03*
%TD*%
D49*
%TO.C,R_Precharge1*%
X157857500Y-168593750D03*
X152657500Y-168593750D03*
%TD*%
D17*
%TO.C,R13*%
X98767500Y-109700000D03*
X100592500Y-109700000D03*
%TD*%
D12*
%TO.C,R27*%
X69538501Y-151180250D03*
X69538501Y-149355250D03*
%TD*%
D29*
%TO.C,H3*%
X159723881Y-181983757D03*
%TD*%
D17*
%TO.C,R45*%
X78526250Y-145362500D03*
X80351250Y-145362500D03*
%TD*%
D10*
%TO.C,R49*%
X44206001Y-141767750D03*
X42381001Y-141767750D03*
%TD*%
D23*
%TO.C,C18*%
X131182500Y-68567500D03*
X133257500Y-68567500D03*
%TD*%
M02*
